<svg xmlns="http://www.w3.org/2000/svg" xmlns:xlink="http://www.w3.org/1999/xlink" width="1080" zoomAndPan="magnify" viewBox="0 0 810 809.999993" height="1080" preserveAspectRatio="xMidYMid meet" version="1.0"><defs><g/><clipPath id="26083745d9"><path d="M 190.785156 360 L 268.785156 360 L 268.785156 427 L 190.785156 427 Z M 190.785156 360 " clip-rule="nonzero"/></clipPath><clipPath id="4fc3283942"><path d="M 190.785156 356.609375 L 268.785156 356.609375 L 268.785156 430.109375 L 190.785156 430.109375 Z M 190.785156 356.609375 " clip-rule="nonzero"/></clipPath></defs><path fill="#00d8ff" d="M 236.75 393.296875 C 236.75 393.753906 236.707031 394.210938 236.617188 394.664062 C 236.527344 395.113281 236.394531 395.550781 236.21875 395.976562 C 236.046875 396.402344 235.832031 396.808594 235.578125 397.191406 C 235.324219 397.570312 235.035156 397.925781 234.710938 398.25 C 234.386719 398.578125 234.035156 398.867188 233.65625 399.125 C 233.273438 399.378906 232.875 399.59375 232.449219 399.769531 C 232.027344 399.945312 231.59375 400.078125 231.144531 400.167969 C 230.695312 400.257812 230.242188 400.304688 229.785156 400.304688 C 229.328125 400.304688 228.875 400.257812 228.425781 400.167969 C 227.976562 400.078125 227.542969 399.945312 227.121094 399.769531 C 226.699219 399.59375 226.296875 399.378906 225.914062 399.125 C 225.535156 398.867188 225.183594 398.578125 224.859375 398.25 C 224.535156 397.925781 224.25 397.570312 223.996094 397.191406 C 223.738281 396.808594 223.527344 396.402344 223.351562 395.976562 C 223.175781 395.550781 223.042969 395.113281 222.953125 394.664062 C 222.863281 394.210938 222.820312 393.753906 222.820312 393.296875 C 222.820312 392.835938 222.863281 392.378906 222.953125 391.929688 C 223.042969 391.476562 223.175781 391.039062 223.351562 390.613281 C 223.527344 390.1875 223.738281 389.785156 223.996094 389.402344 C 224.25 389.019531 224.535156 388.664062 224.859375 388.339844 C 225.183594 388.015625 225.535156 387.722656 225.914062 387.46875 C 226.296875 387.210938 226.699219 386.996094 227.121094 386.820312 C 227.542969 386.644531 227.976562 386.511719 228.425781 386.421875 C 228.875 386.332031 229.328125 386.285156 229.785156 386.285156 C 230.242188 386.285156 230.695312 386.332031 231.144531 386.421875 C 231.59375 386.511719 232.027344 386.644531 232.449219 386.820312 C 232.875 386.996094 233.273438 387.210938 233.65625 387.46875 C 234.035156 387.722656 234.386719 388.015625 234.710938 388.339844 C 235.035156 388.664062 235.324219 389.019531 235.578125 389.402344 C 235.832031 389.785156 236.046875 390.1875 236.21875 390.613281 C 236.394531 391.039062 236.527344 391.476562 236.617188 391.929688 C 236.707031 392.378906 236.75 392.835938 236.75 393.296875 Z M 236.75 393.296875 " fill-opacity="1" fill-rule="nonzero"/><g clip-path="url(#26083745d9)"><path stroke-linecap="butt" transform="matrix(0.13884, 0, 0, 0.139711, 192.363992, 360.096067)" fill="none" stroke-linejoin="miter" d="M 269.527254 135.642733 C 336.882213 135.642733 399.454238 145.288747 446.636471 161.533195 C 503.497111 181.104819 538.440661 210.76981 538.440661 237.638854 C 538.440661 265.626276 501.386993 297.136591 440.362388 317.351283 C 394.193011 332.645109 333.47789 340.641515 269.527254 340.641515 C 203.972929 340.641515 141.907332 333.148379 95.231527 317.183526 C 36.176365 296.996794 0.613847 265.095046 0.613847 237.638854 C 0.613847 210.993485 33.981843 181.552171 90.02657 162.008506 C 137.377613 145.512423 201.497058 135.642733 269.527254 135.642733 Z M 269.527254 135.642733 " stroke="#00d8ff" stroke-width="24" stroke-opacity="1" stroke-miterlimit="4"/></g><g clip-path="url(#4fc3283942)"><path stroke-linecap="butt" transform="matrix(0.13884, 0, 0, 0.139711, 192.363992, 360.096067)" fill="none" stroke-linejoin="miter" d="M 180.733499 186.920388 C 214.382843 128.568988 254.024922 79.192577 291.669423 46.452046 C 337.022888 6.973284 380.153695 -8.488299 403.42126 4.932243 C 427.673546 18.911975 436.479771 66.750616 423.509581 129.743286 C 413.690499 177.358251 390.254125 233.948205 358.321009 289.335901 C 325.571982 346.12157 288.068156 396.169009 250.930083 428.601986 C 203.972929 469.674437 158.53506 484.548872 134.761067 470.820775 C 111.690446 457.512071 102.856086 413.895309 113.913103 355.599828 C 123.282026 306.307295 146.746536 245.858936 180.733499 186.920388 Z M 180.733499 186.920388 " stroke="#00d8ff" stroke-width="24" stroke-opacity="1" stroke-miterlimit="4"/><path stroke-linecap="butt" transform="matrix(0.13884, 0, 0, 0.139711, 192.363992, 360.096067)" fill="none" stroke-linejoin="miter" d="M 180.817904 289.475698 C 147.084154 231.208177 124.097938 172.21371 114.503936 123.228731 C 102.968626 64.234264 111.127748 19.107691 134.367178 5.659189 C 158.59133 -8.376461 204.423088 7.895946 252.505638 50.590046 C 288.855933 82.883226 326.19095 131.448813 358.236605 186.78059 C 391.070037 243.510341 415.688078 300.967037 425.28208 349.336908 C 437.380088 410.568132 427.589142 457.316355 403.815148 471.10037 C 380.772662 484.437034 338.570307 470.317505 293.582597 431.593649 C 255.572342 398.881077 214.889272 348.330368 180.817904 289.475698 Z M 180.817904 289.475698 " stroke="#00d8ff" stroke-width="24" stroke-opacity="1" stroke-miterlimit="4"/></g><g fill="#000000" fill-opacity="1"><g transform="translate(288.910225, 409.710147)"><g><path d="M 20.765625 0.59375 C 17.191406 0.59375 13.96875 -0.175781 11.09375 -1.71875 C 8.226562 -3.257812 5.984375 -5.382812 4.359375 -8.09375 C 2.734375 -10.800781 1.921875 -13.84375 1.921875 -17.21875 C 1.921875 -20.59375 2.734375 -23.632812 4.359375 -26.34375 C 5.984375 -29.050781 8.226562 -31.175781 11.09375 -32.71875 C 13.96875 -34.257812 17.191406 -35.03125 20.765625 -35.03125 C 24.335938 -35.03125 27.550781 -34.257812 30.40625 -32.71875 C 33.257812 -31.175781 35.503906 -29.050781 37.140625 -26.34375 C 38.785156 -23.632812 39.609375 -20.59375 39.609375 -17.21875 C 39.609375 -13.84375 38.785156 -10.800781 37.140625 -8.09375 C 35.503906 -5.382812 33.257812 -3.257812 30.40625 -1.71875 C 27.550781 -0.175781 24.335938 0.59375 20.765625 0.59375 Z M 20.765625 -6.203125 C 22.796875 -6.203125 24.628906 -6.664062 26.265625 -7.59375 C 27.910156 -8.53125 29.203125 -9.832031 30.140625 -11.5 C 31.078125 -13.175781 31.546875 -15.082031 31.546875 -17.21875 C 31.546875 -19.351562 31.078125 -21.253906 30.140625 -22.921875 C 29.203125 -24.597656 27.910156 -25.90625 26.265625 -26.84375 C 24.628906 -27.78125 22.796875 -28.25 20.765625 -28.25 C 18.734375 -28.25 16.894531 -27.78125 15.25 -26.84375 C 13.613281 -25.90625 12.328125 -24.597656 11.390625 -22.921875 C 10.453125 -21.253906 9.984375 -19.351562 9.984375 -17.21875 C 9.984375 -15.082031 10.453125 -13.175781 11.390625 -11.5 C 12.328125 -9.832031 13.613281 -8.53125 15.25 -7.59375 C 16.894531 -6.664062 18.734375 -6.203125 20.765625 -6.203125 Z M 20.765625 -6.203125 "/></g></g></g><g fill="#000000" fill-opacity="1"><g transform="translate(330.429021, 409.710147)"><g><path d="M 3.546875 -36.515625 L 11.21875 -36.515625 L 11.21875 0 L 3.546875 0 Z M 3.546875 -36.515625 "/></g></g></g><g fill="#000000" fill-opacity="1"><g transform="translate(345.236076, 409.710147)"><g><path d="M 29.46875 -13.140625 C 29.46875 -13.035156 29.421875 -12.347656 29.328125 -11.078125 L 9.296875 -11.078125 C 9.660156 -9.429688 10.515625 -8.128906 11.859375 -7.171875 C 13.203125 -6.222656 14.875 -5.75 16.875 -5.75 C 18.25 -5.75 19.46875 -5.953125 20.53125 -6.359375 C 21.601562 -6.773438 22.597656 -7.425781 23.515625 -8.3125 L 27.609375 -3.890625 C 25.109375 -1.035156 21.46875 0.390625 16.6875 0.390625 C 13.695312 0.390625 11.050781 -0.1875 8.75 -1.34375 C 6.457031 -2.507812 4.6875 -4.125 3.4375 -6.1875 C 2.195312 -8.257812 1.578125 -10.609375 1.578125 -13.234375 C 1.578125 -15.828125 2.191406 -18.164062 3.421875 -20.25 C 4.648438 -22.332031 6.335938 -23.953125 8.484375 -25.109375 C 10.628906 -26.273438 13.035156 -26.859375 15.703125 -26.859375 C 18.285156 -26.859375 20.625 -26.300781 22.71875 -25.1875 C 24.820312 -24.070312 26.472656 -22.472656 27.671875 -20.390625 C 28.867188 -18.304688 29.46875 -15.890625 29.46875 -13.140625 Z M 15.75 -21.0625 C 14.007812 -21.0625 12.546875 -20.566406 11.359375 -19.578125 C 10.179688 -18.597656 9.460938 -17.253906 9.203125 -15.546875 L 22.234375 -15.546875 C 21.972656 -17.222656 21.25 -18.5625 20.0625 -19.5625 C 18.882812 -20.5625 17.445312 -21.0625 15.75 -21.0625 Z M 15.75 -21.0625 "/></g></g></g><g fill="#000000" fill-opacity="1"><g transform="translate(376.276793, 409.710147)"><g><path d="M 30.84375 -26.46875 L 30.84375 -4.421875 C 30.84375 0.429688 29.578125 4.035156 27.046875 6.390625 C 24.523438 8.753906 20.835938 9.9375 15.984375 9.9375 C 13.429688 9.9375 11.003906 9.625 8.703125 9 C 6.410156 8.375 4.507812 7.472656 3 6.296875 L 6.046875 0.78125 C 7.160156 1.707031 8.570312 2.4375 10.28125 2.96875 C 11.988281 3.507812 13.695312 3.78125 15.40625 3.78125 C 18.0625 3.78125 20.019531 3.179688 21.28125 1.984375 C 22.539062 0.796875 23.171875 -1.007812 23.171875 -3.4375 L 23.171875 -4.578125 C 21.171875 -2.378906 18.382812 -1.28125 14.8125 -1.28125 C 12.382812 -1.28125 10.160156 -1.8125 8.140625 -2.875 C 6.117188 -3.945312 4.519531 -5.445312 3.34375 -7.375 C 2.164062 -9.3125 1.578125 -11.546875 1.578125 -14.078125 C 1.578125 -16.597656 2.164062 -18.828125 3.34375 -20.765625 C 4.519531 -22.703125 6.117188 -24.203125 8.140625 -25.265625 C 10.160156 -26.328125 12.382812 -26.859375 14.8125 -26.859375 C 18.644531 -26.859375 21.5625 -25.597656 23.5625 -23.078125 L 23.5625 -26.46875 Z M 16.328125 -7.578125 C 18.367188 -7.578125 20.035156 -8.175781 21.328125 -9.375 C 22.617188 -10.570312 23.265625 -12.140625 23.265625 -14.078125 C 23.265625 -16.003906 22.617188 -17.566406 21.328125 -18.765625 C 20.035156 -19.960938 18.367188 -20.5625 16.328125 -20.5625 C 14.296875 -20.5625 12.625 -19.960938 11.3125 -18.765625 C 10 -17.566406 9.34375 -16.003906 9.34375 -14.078125 C 9.34375 -12.140625 10 -10.570312 11.3125 -9.375 C 12.625 -8.175781 14.296875 -7.578125 16.328125 -7.578125 Z M 16.328125 -7.578125 "/></g></g></g><g fill="#000000" fill-opacity="1"><g transform="translate(410.711815, 409.710147)"><g/></g></g><g fill="#000000" fill-opacity="1"><g transform="translate(424.633401, 409.710147)"><g><path d="M 4.078125 -34.4375 L 12.0625 -34.4375 L 12.0625 -6.5 L 29.328125 -6.5 L 29.328125 0 L 4.078125 0 Z M 4.078125 -34.4375 "/></g></g></g><g fill="#000000" fill-opacity="1"><g transform="translate(454.345912, 409.710147)"><g><path d="M 30.203125 -26.46875 L 30.203125 0 L 22.921875 0 L 22.921875 -3.15625 C 21.910156 -2 20.695312 -1.117188 19.28125 -0.515625 C 17.875 0.0859375 16.351562 0.390625 14.71875 0.390625 C 11.238281 0.390625 8.476562 -0.609375 6.4375 -2.609375 C 4.40625 -4.609375 3.390625 -7.578125 3.390625 -11.515625 L 3.390625 -26.46875 L 11.078125 -26.46875 L 11.078125 -12.640625 C 11.078125 -8.378906 12.863281 -6.25 16.4375 -6.25 C 18.269531 -6.25 19.742188 -6.847656 20.859375 -8.046875 C 21.972656 -9.242188 22.53125 -11.023438 22.53125 -13.390625 L 22.53125 -26.46875 Z M 30.203125 -26.46875 "/></g></g></g><g fill="#000000" fill-opacity="1"><g transform="translate(488.141426, 409.710147)"><g><path d="M 25.34375 -5.90625 L 25.34375 0 L 1.71875 0 L 1.71875 -4.625 L 15.203125 -20.5625 L 2.0625 -20.5625 L 2.0625 -26.46875 L 24.890625 -26.46875 L 24.890625 -21.84375 L 11.421875 -5.90625 Z M 25.34375 -5.90625 "/></g></g></g><g fill="#000000" fill-opacity="1"><g transform="translate(514.853166, 409.710147)"><g><path d="M 29.46875 -13.140625 C 29.46875 -13.035156 29.421875 -12.347656 29.328125 -11.078125 L 9.296875 -11.078125 C 9.660156 -9.429688 10.515625 -8.128906 11.859375 -7.171875 C 13.203125 -6.222656 14.875 -5.75 16.875 -5.75 C 18.25 -5.75 19.46875 -5.953125 20.53125 -6.359375 C 21.601562 -6.773438 22.597656 -7.425781 23.515625 -8.3125 L 27.609375 -3.890625 C 25.109375 -1.035156 21.46875 0.390625 16.6875 0.390625 C 13.695312 0.390625 11.050781 -0.1875 8.75 -1.34375 C 6.457031 -2.507812 4.6875 -4.125 3.4375 -6.1875 C 2.195312 -8.257812 1.578125 -10.609375 1.578125 -13.234375 C 1.578125 -15.828125 2.191406 -18.164062 3.421875 -20.25 C 4.648438 -22.332031 6.335938 -23.953125 8.484375 -25.109375 C 10.628906 -26.273438 13.035156 -26.859375 15.703125 -26.859375 C 18.285156 -26.859375 20.625 -26.300781 22.71875 -25.1875 C 24.820312 -24.070312 26.472656 -22.472656 27.671875 -20.390625 C 28.867188 -18.304688 29.46875 -15.890625 29.46875 -13.140625 Z M 15.75 -21.0625 C 14.007812 -21.0625 12.546875 -20.566406 11.359375 -19.578125 C 10.179688 -18.597656 9.460938 -17.253906 9.203125 -15.546875 L 22.234375 -15.546875 C 21.972656 -17.222656 21.25 -18.5625 20.0625 -19.5625 C 18.882812 -20.5625 17.445312 -21.0625 15.75 -21.0625 Z M 15.75 -21.0625 "/></g></g></g><g fill="#000000" fill-opacity="1"><g transform="translate(545.893882, 409.710147)"><g><path d="M 19.625 -26.859375 C 22.90625 -26.859375 25.554688 -25.875 27.578125 -23.90625 C 29.597656 -21.9375 30.609375 -19.019531 30.609375 -15.15625 L 30.609375 0 L 22.921875 0 L 22.921875 -13.96875 C 22.921875 -16.070312 22.460938 -17.640625 21.546875 -18.671875 C 20.628906 -19.703125 19.300781 -20.21875 17.5625 -20.21875 C 15.625 -20.21875 14.082031 -19.617188 12.9375 -18.421875 C 11.789062 -17.222656 11.21875 -15.445312 11.21875 -13.09375 L 11.21875 0 L 3.546875 0 L 3.546875 -26.46875 L 10.875 -26.46875 L 10.875 -23.375 C 11.894531 -24.488281 13.15625 -25.347656 14.65625 -25.953125 C 16.164062 -26.554688 17.820312 -26.859375 19.625 -26.859375 Z M 19.625 -26.859375 "/></g></g></g><g fill="#000000" fill-opacity="1"><g transform="translate(579.886181, 409.710147)"><g><path d="M 3.546875 -26.46875 L 11.21875 -26.46875 L 11.21875 0 L 3.546875 0 Z M 7.375 -30.15625 C 5.96875 -30.15625 4.820312 -30.566406 3.9375 -31.390625 C 3.050781 -32.210938 2.609375 -33.226562 2.609375 -34.4375 C 2.609375 -35.65625 3.050781 -36.671875 3.9375 -37.484375 C 4.820312 -38.304688 5.96875 -38.71875 7.375 -38.71875 C 8.789062 -38.71875 9.941406 -38.320312 10.828125 -37.53125 C 11.710938 -36.75 12.15625 -35.769531 12.15625 -34.59375 C 12.15625 -33.3125 11.710938 -32.25 10.828125 -31.40625 C 9.941406 -30.570312 8.789062 -30.15625 7.375 -30.15625 Z M 7.375 -30.15625 "/></g></g></g><g fill="#000000" fill-opacity="1"><g transform="translate(594.693237, 409.710147)"><g><path d="M 19.625 -26.859375 C 22.90625 -26.859375 25.554688 -25.875 27.578125 -23.90625 C 29.597656 -21.9375 30.609375 -19.019531 30.609375 -15.15625 L 30.609375 0 L 22.921875 0 L 22.921875 -13.96875 C 22.921875 -16.070312 22.460938 -17.640625 21.546875 -18.671875 C 20.628906 -19.703125 19.300781 -20.21875 17.5625 -20.21875 C 15.625 -20.21875 14.082031 -19.617188 12.9375 -18.421875 C 11.789062 -17.222656 11.21875 -15.445312 11.21875 -13.09375 L 11.21875 0 L 3.546875 0 L 3.546875 -26.46875 L 10.875 -26.46875 L 10.875 -23.375 C 11.894531 -24.488281 13.15625 -25.347656 14.65625 -25.953125 C 16.164062 -26.554688 17.820312 -26.859375 19.625 -26.859375 Z M 19.625 -26.859375 "/></g></g></g></svg>