<svg xmlns="http://www.w3.org/2000/svg" xmlns:xlink="http://www.w3.org/1999/xlink" width="200" zoomAndPan="magnify" viewBox="0 0 150 30.000001" height="40" preserveAspectRatio="xMidYMid meet" version="1.0"><defs><g/><clipPath id="9e0d111d93"><path d="M 5.324219 4 L 28.546875 4 L 28.546875 25 L 5.324219 25 Z M 5.324219 4 " clip-rule="nonzero"/></clipPath><clipPath id="272196c3c8"><path d="M 5.324219 3.539062 L 28.546875 3.539062 L 28.546875 25.316406 L 5.324219 25.316406 Z M 5.324219 3.539062 " clip-rule="nonzero"/></clipPath></defs><path fill="#00d8ff" d="M 19.007812 14.410156 C 19.007812 14.683594 18.957031 14.949219 18.851562 15.203125 C 18.746094 15.457031 18.597656 15.683594 18.402344 15.878906 C 18.207031 16.074219 17.984375 16.222656 17.730469 16.328125 C 17.476562 16.433594 17.210938 16.484375 16.9375 16.484375 C 16.660156 16.484375 16.394531 16.433594 16.140625 16.328125 C 15.886719 16.222656 15.664062 16.074219 15.46875 15.878906 C 15.273438 15.683594 15.125 15.457031 15.019531 15.203125 C 14.914062 14.949219 14.863281 14.683594 14.863281 14.410156 C 14.863281 14.132812 14.914062 13.867188 15.019531 13.613281 C 15.125 13.359375 15.273438 13.136719 15.46875 12.941406 C 15.664062 12.746094 15.886719 12.59375 16.140625 12.488281 C 16.394531 12.382812 16.660156 12.332031 16.9375 12.332031 C 17.210938 12.332031 17.476562 12.382812 17.730469 12.488281 C 17.984375 12.59375 18.207031 12.746094 18.402344 12.941406 C 18.597656 13.136719 18.746094 13.359375 18.851562 13.613281 C 18.957031 13.867188 19.007812 14.132812 19.007812 14.410156 Z M 19.007812 14.410156 " fill-opacity="1" fill-rule="nonzero"/><g clip-path="url(#9e0d111d93)"><path stroke-linecap="butt" transform="matrix(0.0413419, 0, 0, 0.041402, 5.792712, 4.570583)" fill="none" stroke-linejoin="miter" d="M 269.575832 135.667674 C 336.850131 135.667674 399.494597 145.291297 446.643298 161.519367 C 503.524095 181.14401 538.389567 210.769673 538.389567 237.659207 C 538.389567 265.586584 501.350908 297.099232 440.312711 317.384319 C 394.20336 332.668897 333.448621 340.594233 269.575832 340.594233 C 204.002288 340.594233 141.92474 333.140643 95.248471 317.195621 C 36.194487 297.004882 0.667611 265.114838 0.667611 237.659207 C 0.667611 210.958371 34.021301 181.521407 90.051721 161.991113 C 137.389394 145.479995 201.545642 135.667674 269.481346 135.667674 Z M 269.575832 135.667674 " stroke="#00d8ff" stroke-width="24" stroke-opacity="1" stroke-miterlimit="4"/></g><g clip-path="url(#272196c3c8)"><path stroke-linecap="butt" transform="matrix(0.0413419, 0, 0, 0.041402, 5.792712, 4.570583)" fill="none" stroke-linejoin="miter" d="M 180.75864 186.899314 C 214.395789 128.591481 253.98558 79.246826 291.685644 46.413288 C 337.039103 6.975304 380.12489 -8.497972 403.463025 4.899621 C 427.651536 18.957658 436.438769 66.792725 423.494136 129.723672 C 413.667553 177.37004 390.234932 233.979587 358.298538 289.362593 C 325.606252 346.160839 288.095161 396.165938 250.962016 428.622079 C 204.002288 469.664 158.554342 484.571181 134.743776 470.796191 C 111.6891 457.492947 102.901868 413.903596 113.956773 355.595763 C 123.310924 306.345458 146.743545 245.867592 180.75864 186.899314 Z M 180.75864 186.899314 " stroke="#00d8ff" stroke-width="24" stroke-opacity="1" stroke-miterlimit="4"/><path stroke-linecap="butt" transform="matrix(0.0413419, 0, 0, 0.041402, 5.792712, 4.570583)" fill="none" stroke-linejoin="miter" d="M 180.853126 289.456943 C 147.121491 231.243459 124.066815 172.180832 114.523692 123.213574 C 102.996354 64.245296 111.122182 19.146357 134.36583 5.654415 C 158.554342 -8.403623 204.47472 7.918797 252.473798 50.564655 C 288.851052 82.926446 326.17317 131.421958 358.204051 186.804965 C 391.085309 243.508861 415.651767 300.967551 425.289377 349.368713 C 437.383633 410.601373 427.55705 457.304249 403.84097 471.079239 C 380.786295 484.476831 338.550885 470.324445 293.575371 431.546905 C 255.591849 398.902067 214.868221 348.330871 180.853126 289.456943 Z M 180.853126 289.456943 " stroke="#00d8ff" stroke-width="24" stroke-opacity="1" stroke-miterlimit="4"/></g><g fill="#000000" fill-opacity="1"><g transform="translate(31.656748, 20.004622)"><g><path d="M 6.90625 0.203125 C 5.71875 0.203125 4.644531 -0.0507812 3.6875 -0.5625 C 2.726562 -1.082031 1.976562 -1.789062 1.4375 -2.6875 C 0.90625 -3.59375 0.640625 -4.601562 0.640625 -5.71875 C 0.640625 -6.84375 0.90625 -7.851562 1.4375 -8.75 C 1.976562 -9.65625 2.726562 -10.363281 3.6875 -10.875 C 4.644531 -11.382812 5.71875 -11.640625 6.90625 -11.640625 C 8.09375 -11.640625 9.160156 -11.382812 10.109375 -10.875 C 11.054688 -10.363281 11.800781 -9.65625 12.34375 -8.75 C 12.894531 -7.851562 13.171875 -6.84375 13.171875 -5.71875 C 13.171875 -4.601562 12.894531 -3.59375 12.34375 -2.6875 C 11.800781 -1.789062 11.054688 -1.082031 10.109375 -0.5625 C 9.160156 -0.0507812 8.09375 0.203125 6.90625 0.203125 Z M 6.90625 -2.0625 C 7.582031 -2.0625 8.191406 -2.21875 8.734375 -2.53125 C 9.273438 -2.84375 9.703125 -3.273438 10.015625 -3.828125 C 10.328125 -4.378906 10.484375 -5.007812 10.484375 -5.71875 C 10.484375 -6.4375 10.328125 -7.070312 10.015625 -7.625 C 9.703125 -8.175781 9.273438 -8.609375 8.734375 -8.921875 C 8.191406 -9.234375 7.582031 -9.390625 6.90625 -9.390625 C 6.226562 -9.390625 5.613281 -9.234375 5.0625 -8.921875 C 4.519531 -8.609375 4.09375 -8.175781 3.78125 -7.625 C 3.476562 -7.070312 3.328125 -6.4375 3.328125 -5.71875 C 3.328125 -5.007812 3.476562 -4.378906 3.78125 -3.828125 C 4.09375 -3.273438 4.519531 -2.84375 5.0625 -2.53125 C 5.613281 -2.21875 6.226562 -2.0625 6.90625 -2.0625 Z M 6.90625 -2.0625 "/></g></g></g><g fill="#000000" fill-opacity="1"><g transform="translate(45.466097, 20.004622)"><g><path d="M 1.171875 -12.140625 L 3.734375 -12.140625 L 3.734375 0 L 1.171875 0 Z M 1.171875 -12.140625 "/></g></g></g><g fill="#000000" fill-opacity="1"><g transform="translate(50.390994, 20.004622)"><g><path d="M 9.796875 -4.375 C 9.796875 -4.332031 9.78125 -4.101562 9.75 -3.6875 L 3.09375 -3.6875 C 3.207031 -3.132812 3.488281 -2.695312 3.9375 -2.375 C 4.382812 -2.0625 4.941406 -1.90625 5.609375 -1.90625 C 6.066406 -1.90625 6.472656 -1.972656 6.828125 -2.109375 C 7.179688 -2.253906 7.507812 -2.472656 7.8125 -2.765625 L 9.171875 -1.296875 C 8.347656 -0.347656 7.140625 0.125 5.546875 0.125 C 4.554688 0.125 3.675781 -0.0664062 2.90625 -0.453125 C 2.144531 -0.835938 1.554688 -1.375 1.140625 -2.0625 C 0.734375 -2.75 0.53125 -3.53125 0.53125 -4.40625 C 0.53125 -5.257812 0.734375 -6.03125 1.140625 -6.71875 C 1.546875 -7.414062 2.101562 -7.957031 2.8125 -8.34375 C 3.53125 -8.738281 4.332031 -8.9375 5.21875 -8.9375 C 6.082031 -8.9375 6.863281 -8.75 7.5625 -8.375 C 8.257812 -8 8.804688 -7.460938 9.203125 -6.765625 C 9.597656 -6.078125 9.796875 -5.28125 9.796875 -4.375 Z M 5.234375 -7 C 4.660156 -7 4.175781 -6.832031 3.78125 -6.5 C 3.382812 -6.175781 3.144531 -5.734375 3.0625 -5.171875 L 7.390625 -5.171875 C 7.304688 -5.722656 7.066406 -6.164062 6.671875 -6.5 C 6.273438 -6.832031 5.796875 -7 5.234375 -7 Z M 5.234375 -7 "/></g></g></g><g fill="#000000" fill-opacity="1"><g transform="translate(60.715284, 20.004622)"><g><path d="M 10.25 -8.796875 L 10.25 -1.46875 C 10.25 0.144531 9.828125 1.34375 8.984375 2.125 C 8.148438 2.90625 6.925781 3.296875 5.3125 3.296875 C 4.46875 3.296875 3.660156 3.191406 2.890625 2.984375 C 2.128906 2.785156 1.5 2.488281 1 2.09375 L 2.015625 0.265625 C 2.378906 0.566406 2.84375 0.804688 3.40625 0.984375 C 3.976562 1.171875 4.550781 1.265625 5.125 1.265625 C 6.007812 1.265625 6.660156 1.0625 7.078125 0.65625 C 7.492188 0.257812 7.703125 -0.335938 7.703125 -1.140625 L 7.703125 -1.515625 C 7.035156 -0.785156 6.109375 -0.421875 4.921875 -0.421875 C 4.117188 -0.421875 3.378906 -0.597656 2.703125 -0.953125 C 2.035156 -1.304688 1.503906 -1.804688 1.109375 -2.453125 C 0.722656 -3.097656 0.53125 -3.835938 0.53125 -4.671875 C 0.53125 -5.515625 0.722656 -6.257812 1.109375 -6.90625 C 1.503906 -7.550781 2.035156 -8.050781 2.703125 -8.40625 C 3.378906 -8.757812 4.117188 -8.9375 4.921875 -8.9375 C 6.203125 -8.9375 7.175781 -8.515625 7.84375 -7.671875 L 7.84375 -8.796875 Z M 5.4375 -2.515625 C 6.113281 -2.515625 6.664062 -2.710938 7.09375 -3.109375 C 7.519531 -3.515625 7.734375 -4.035156 7.734375 -4.671875 C 7.734375 -5.316406 7.519531 -5.835938 7.09375 -6.234375 C 6.664062 -6.640625 6.113281 -6.84375 5.4375 -6.84375 C 4.757812 -6.84375 4.203125 -6.640625 3.765625 -6.234375 C 3.328125 -5.835938 3.109375 -5.316406 3.109375 -4.671875 C 3.109375 -4.035156 3.328125 -3.515625 3.765625 -3.109375 C 4.203125 -2.710938 4.757812 -2.515625 5.4375 -2.515625 Z M 5.4375 -2.515625 "/></g></g></g><g fill="#000000" fill-opacity="1"><g transform="translate(72.168536, 20.004622)"><g/></g></g><g fill="#000000" fill-opacity="1"><g transform="translate(76.798921, 20.004622)"><g><path d="M 1.359375 -11.453125 L 4.015625 -11.453125 L 4.015625 -2.15625 L 9.75 -2.15625 L 9.75 0 L 1.359375 0 Z M 1.359375 -11.453125 "/></g></g></g><g fill="#000000" fill-opacity="1"><g transform="translate(86.681444, 20.004622)"><g><path d="M 10.046875 -8.796875 L 10.046875 0 L 7.625 0 L 7.625 -1.046875 C 7.28125 -0.660156 6.875 -0.367188 6.40625 -0.171875 C 5.9375 0.0234375 5.429688 0.125 4.890625 0.125 C 3.734375 0.125 2.816406 -0.203125 2.140625 -0.859375 C 1.460938 -1.523438 1.125 -2.515625 1.125 -3.828125 L 1.125 -8.796875 L 3.6875 -8.796875 L 3.6875 -4.203125 C 3.6875 -2.785156 4.28125 -2.078125 5.46875 -2.078125 C 6.070312 -2.078125 6.5625 -2.273438 6.9375 -2.671875 C 7.3125 -3.066406 7.5 -3.660156 7.5 -4.453125 L 7.5 -8.796875 Z M 10.046875 -8.796875 "/></g></g></g><g fill="#000000" fill-opacity="1"><g transform="translate(97.921992, 20.004622)"><g><path d="M 8.421875 -1.96875 L 8.421875 0 L 0.578125 0 L 0.578125 -1.53125 L 5.0625 -6.84375 L 0.6875 -6.84375 L 0.6875 -8.796875 L 8.28125 -8.796875 L 8.28125 -7.265625 L 3.796875 -1.96875 Z M 8.421875 -1.96875 "/></g></g></g><g fill="#000000" fill-opacity="1"><g transform="translate(106.806444, 20.004622)"><g><path d="M 9.796875 -4.375 C 9.796875 -4.332031 9.78125 -4.101562 9.75 -3.6875 L 3.09375 -3.6875 C 3.207031 -3.132812 3.488281 -2.695312 3.9375 -2.375 C 4.382812 -2.0625 4.941406 -1.90625 5.609375 -1.90625 C 6.066406 -1.90625 6.472656 -1.972656 6.828125 -2.109375 C 7.179688 -2.253906 7.507812 -2.472656 7.8125 -2.765625 L 9.171875 -1.296875 C 8.347656 -0.347656 7.140625 0.125 5.546875 0.125 C 4.554688 0.125 3.675781 -0.0664062 2.90625 -0.453125 C 2.144531 -0.835938 1.554688 -1.375 1.140625 -2.0625 C 0.734375 -2.75 0.53125 -3.53125 0.53125 -4.40625 C 0.53125 -5.257812 0.734375 -6.03125 1.140625 -6.71875 C 1.546875 -7.414062 2.101562 -7.957031 2.8125 -8.34375 C 3.53125 -8.738281 4.332031 -8.9375 5.21875 -8.9375 C 6.082031 -8.9375 6.863281 -8.75 7.5625 -8.375 C 8.257812 -8 8.804688 -7.460938 9.203125 -6.765625 C 9.597656 -6.078125 9.796875 -5.28125 9.796875 -4.375 Z M 5.234375 -7 C 4.660156 -7 4.175781 -6.832031 3.78125 -6.5 C 3.382812 -6.175781 3.144531 -5.734375 3.0625 -5.171875 L 7.390625 -5.171875 C 7.304688 -5.722656 7.066406 -6.164062 6.671875 -6.5 C 6.273438 -6.832031 5.796875 -7 5.234375 -7 Z M 5.234375 -7 "/></g></g></g><g fill="#000000" fill-opacity="1"><g transform="translate(117.130733, 20.004622)"><g><path d="M 6.53125 -8.9375 C 7.613281 -8.9375 8.488281 -8.609375 9.15625 -7.953125 C 9.832031 -7.296875 10.171875 -6.320312 10.171875 -5.03125 L 10.171875 0 L 7.625 0 L 7.625 -4.640625 C 7.625 -5.335938 7.46875 -5.859375 7.15625 -6.203125 C 6.851562 -6.546875 6.414062 -6.71875 5.84375 -6.71875 C 5.195312 -6.71875 4.679688 -6.519531 4.296875 -6.125 C 3.921875 -5.726562 3.734375 -5.140625 3.734375 -4.359375 L 3.734375 0 L 1.171875 0 L 1.171875 -8.796875 L 3.609375 -8.796875 L 3.609375 -7.765625 C 3.953125 -8.140625 4.375 -8.425781 4.875 -8.625 C 5.375 -8.832031 5.925781 -8.9375 6.53125 -8.9375 Z M 6.53125 -8.9375 "/></g></g></g><g fill="#000000" fill-opacity="1"><g transform="translate(128.436734, 20.004622)"><g><path d="M 1.171875 -8.796875 L 3.734375 -8.796875 L 3.734375 0 L 1.171875 0 Z M 2.453125 -10.03125 C 1.984375 -10.03125 1.597656 -10.164062 1.296875 -10.4375 C 1.003906 -10.707031 0.859375 -11.046875 0.859375 -11.453125 C 0.859375 -11.859375 1.003906 -12.195312 1.296875 -12.46875 C 1.597656 -12.738281 1.984375 -12.875 2.453125 -12.875 C 2.921875 -12.875 3.300781 -12.742188 3.59375 -12.484375 C 3.882812 -12.222656 4.03125 -11.894531 4.03125 -11.5 C 4.03125 -11.070312 3.882812 -10.71875 3.59375 -10.4375 C 3.300781 -10.164062 2.921875 -10.03125 2.453125 -10.03125 Z M 2.453125 -10.03125 "/></g></g></g><g fill="#000000" fill-opacity="1"><g transform="translate(133.361631, 20.004622)"><g><path d="M 6.53125 -8.9375 C 7.613281 -8.9375 8.488281 -8.609375 9.15625 -7.953125 C 9.832031 -7.296875 10.171875 -6.320312 10.171875 -5.03125 L 10.171875 0 L 7.625 0 L 7.625 -4.640625 C 7.625 -5.335938 7.46875 -5.859375 7.15625 -6.203125 C 6.851562 -6.546875 6.414062 -6.71875 5.84375 -6.71875 C 5.195312 -6.71875 4.679688 -6.519531 4.296875 -6.125 C 3.921875 -5.726562 3.734375 -5.140625 3.734375 -4.359375 L 3.734375 0 L 1.171875 0 L 1.171875 -8.796875 L 3.609375 -8.796875 L 3.609375 -7.765625 C 3.953125 -8.140625 4.375 -8.425781 4.875 -8.625 C 5.375 -8.832031 5.925781 -8.9375 6.53125 -8.9375 Z M 6.53125 -8.9375 "/></g></g></g></svg>