<svg xmlns="http://www.w3.org/2000/svg" xmlns:xlink="http://www.w3.org/1999/xlink" width="200" zoomAndPan="magnify" viewBox="0 0 150 30.000001" height="40" preserveAspectRatio="xMidYMid meet" version="1.0"><defs><g/><clipPath id="24d4a6d3ab"><path d="M 2.417969 0 L 147.578125 0 L 147.578125 29.03125 L 2.417969 29.03125 Z M 2.417969 0 " clip-rule="nonzero"/></clipPath><clipPath id="89c05b6bfb"><path d="M 5.324219 4 L 28.546875 4 L 28.546875 25 L 5.324219 25 Z M 5.324219 4 " clip-rule="nonzero"/></clipPath><clipPath id="fb6f50f95a"><path d="M 5.324219 3.539062 L 28.546875 3.539062 L 28.546875 25.316406 L 5.324219 25.316406 Z M 5.324219 3.539062 " clip-rule="nonzero"/></clipPath></defs><g clip-path="url(#24d4a6d3ab)"><path fill="#ffffff" d="M 2.417969 0 L 147.582031 0 L 147.582031 29.03125 L 2.417969 29.03125 Z M 2.417969 0 " fill-opacity="1" fill-rule="nonzero"/><path fill="#ffffff" d="M 2.417969 0 L 147.582031 0 L 147.582031 29.03125 L 2.417969 29.03125 Z M 2.417969 0 " fill-opacity="1" fill-rule="nonzero"/></g><path fill="#00d8ff" d="M 19.007812 14.410156 C 19.007812 14.683594 18.957031 14.949219 18.851562 15.203125 C 18.746094 15.457031 18.597656 15.683594 18.402344 15.878906 C 18.207031 16.074219 17.984375 16.222656 17.730469 16.328125 C 17.476562 16.433594 17.210938 16.484375 16.9375 16.484375 C 16.660156 16.484375 16.394531 16.433594 16.140625 16.328125 C 15.886719 16.222656 15.664062 16.074219 15.46875 15.878906 C 15.273438 15.683594 15.125 15.457031 15.019531 15.203125 C 14.914062 14.949219 14.863281 14.683594 14.863281 14.410156 C 14.863281 14.132812 14.914062 13.867188 15.019531 13.613281 C 15.125 13.359375 15.273438 13.136719 15.46875 12.941406 C 15.664062 12.746094 15.886719 12.59375 16.140625 12.488281 C 16.394531 12.382812 16.660156 12.332031 16.9375 12.332031 C 17.210938 12.332031 17.476562 12.382812 17.730469 12.488281 C 17.984375 12.59375 18.207031 12.746094 18.402344 12.941406 C 18.597656 13.136719 18.746094 13.359375 18.851562 13.613281 C 18.957031 13.867188 19.007812 14.132812 19.007812 14.410156 Z M 19.007812 14.410156 " fill-opacity="1" fill-rule="nonzero"/><g clip-path="url(#89c05b6bfb)"><path stroke-linecap="butt" transform="matrix(0.0413419, 0, 0, 0.041402, 5.792712, 4.570583)" fill="none" stroke-linejoin="miter" d="M 269.575832 135.667674 C 336.850131 135.667674 399.494597 145.291297 446.643298 161.519367 C 503.524095 181.14401 538.389567 210.769673 538.389567 237.659207 C 538.389567 265.586584 501.350908 297.099232 440.312711 317.384319 C 394.20336 332.668897 333.448621 340.594233 269.575832 340.594233 C 204.002288 340.594233 141.92474 333.140643 95.248471 317.195621 C 36.194487 297.004882 0.667611 265.114838 0.667611 237.659207 C 0.667611 210.958371 34.021301 181.521407 90.051721 161.991113 C 137.389394 145.479995 201.545642 135.667674 269.481346 135.667674 Z M 269.575832 135.667674 " stroke="#00d8ff" stroke-width="24" stroke-opacity="1" stroke-miterlimit="4"/></g><g clip-path="url(#fb6f50f95a)"><path stroke-linecap="butt" transform="matrix(0.0413419, 0, 0, 0.041402, 5.792712, 4.570583)" fill="none" stroke-linejoin="miter" d="M 180.75864 186.899314 C 214.395789 128.591481 253.98558 79.246826 291.685644 46.413288 C 337.039103 6.975304 380.12489 -8.497972 403.463025 4.899621 C 427.651536 18.957658 436.438769 66.792725 423.494136 129.723672 C 413.667553 177.37004 390.234932 233.979587 358.298538 289.362593 C 325.606252 346.160839 288.095161 396.165938 250.962016 428.622079 C 204.002288 469.664 158.554342 484.571181 134.743776 470.796191 C 111.6891 457.492947 102.901868 413.903596 113.956773 355.595763 C 123.310924 306.345458 146.743545 245.867592 180.75864 186.899314 Z M 180.75864 186.899314 " stroke="#00d8ff" stroke-width="24" stroke-opacity="1" stroke-miterlimit="4"/><path stroke-linecap="butt" transform="matrix(0.0413419, 0, 0, 0.041402, 5.792712, 4.570583)" fill="none" stroke-linejoin="miter" d="M 180.853126 289.456943 C 147.121491 231.243459 124.066815 172.180832 114.523692 123.213574 C 102.996354 64.245296 111.122182 19.146357 134.36583 5.654415 C 158.554342 -8.403623 204.47472 7.918797 252.473798 50.564655 C 288.851052 82.926446 326.17317 131.421958 358.204051 186.804965 C 391.085309 243.508861 415.651767 300.967551 425.289377 349.368713 C 437.383633 410.601373 427.55705 457.304249 403.84097 471.079239 C 380.786295 484.476831 338.550885 470.324445 293.575371 431.546905 C 255.591849 398.902067 214.868221 348.330871 180.853126 289.456943 Z M 180.853126 289.456943 " stroke="#00d8ff" stroke-width="24" stroke-opacity="1" stroke-miterlimit="4"/></g><g fill="#000000" fill-opacity="1"><g transform="translate(33.056003, 19.936674)"><g><path d="M 6.8125 0.1875 C 5.644531 0.1875 4.585938 -0.0625 3.640625 -0.5625 C 2.703125 -1.070312 1.960938 -1.769531 1.421875 -2.65625 C 0.890625 -3.539062 0.625 -4.539062 0.625 -5.65625 C 0.625 -6.757812 0.890625 -7.753906 1.421875 -8.640625 C 1.960938 -9.535156 2.703125 -10.234375 3.640625 -10.734375 C 4.585938 -11.242188 5.644531 -11.5 6.8125 -11.5 C 7.988281 -11.5 9.046875 -11.242188 9.984375 -10.734375 C 10.921875 -10.234375 11.65625 -9.535156 12.1875 -8.640625 C 12.726562 -7.753906 13 -6.757812 13 -5.65625 C 13 -4.539062 12.726562 -3.539062 12.1875 -2.65625 C 11.65625 -1.769531 10.921875 -1.070312 9.984375 -0.5625 C 9.046875 -0.0625 7.988281 0.1875 6.8125 0.1875 Z M 6.8125 -2.03125 C 7.476562 -2.03125 8.082031 -2.179688 8.625 -2.484375 C 9.164062 -2.796875 9.585938 -3.226562 9.890625 -3.78125 C 10.203125 -4.332031 10.359375 -4.957031 10.359375 -5.65625 C 10.359375 -6.351562 10.203125 -6.976562 9.890625 -7.53125 C 9.585938 -8.082031 9.164062 -8.507812 8.625 -8.8125 C 8.082031 -9.125 7.476562 -9.28125 6.8125 -9.28125 C 6.144531 -9.28125 5.539062 -9.125 5 -8.8125 C 4.46875 -8.507812 4.046875 -8.082031 3.734375 -7.53125 C 3.429688 -6.976562 3.28125 -6.351562 3.28125 -5.65625 C 3.28125 -4.957031 3.429688 -4.332031 3.734375 -3.78125 C 4.046875 -3.226562 4.46875 -2.796875 5 -2.484375 C 5.539062 -2.179688 6.144531 -2.03125 6.8125 -2.03125 Z M 6.8125 -2.03125 "/></g></g></g><g fill="#000000" fill-opacity="1"><g transform="translate(46.694386, 19.936674)"><g><path d="M 1.15625 -11.984375 L 3.6875 -11.984375 L 3.6875 0 L 1.15625 0 Z M 1.15625 -11.984375 "/></g></g></g><g fill="#000000" fill-opacity="1"><g transform="translate(51.558311, 19.936674)"><g><path d="M 9.671875 -4.3125 C 9.671875 -4.28125 9.65625 -4.054688 9.625 -3.640625 L 3.046875 -3.640625 C 3.171875 -3.097656 3.453125 -2.671875 3.890625 -2.359375 C 4.335938 -2.046875 4.890625 -1.890625 5.546875 -1.890625 C 5.992188 -1.890625 6.390625 -1.957031 6.734375 -2.09375 C 7.085938 -2.226562 7.414062 -2.441406 7.71875 -2.734375 L 9.0625 -1.28125 C 8.238281 -0.34375 7.046875 0.125 5.484375 0.125 C 4.492188 0.125 3.625 -0.0625 2.875 -0.4375 C 2.125 -0.820312 1.539062 -1.351562 1.125 -2.03125 C 0.71875 -2.707031 0.515625 -3.476562 0.515625 -4.34375 C 0.515625 -5.195312 0.71875 -5.960938 1.125 -6.640625 C 1.53125 -7.328125 2.082031 -7.863281 2.78125 -8.25 C 3.488281 -8.632812 4.28125 -8.828125 5.15625 -8.828125 C 6.007812 -8.828125 6.78125 -8.640625 7.46875 -8.265625 C 8.15625 -7.898438 8.691406 -7.375 9.078125 -6.6875 C 9.472656 -6.007812 9.671875 -5.21875 9.671875 -4.3125 Z M 5.171875 -6.921875 C 4.597656 -6.921875 4.117188 -6.757812 3.734375 -6.4375 C 3.347656 -6.113281 3.109375 -5.671875 3.015625 -5.109375 L 7.296875 -5.109375 C 7.210938 -5.648438 6.976562 -6.085938 6.59375 -6.421875 C 6.207031 -6.753906 5.734375 -6.921875 5.171875 -6.921875 Z M 5.171875 -6.921875 "/></g></g></g><g fill="#000000" fill-opacity="1"><g transform="translate(61.754782, 19.936674)"><g><path d="M 10.125 -8.6875 L 10.125 -1.453125 C 10.125 0.140625 9.707031 1.320312 8.875 2.09375 C 8.050781 2.875 6.84375 3.265625 5.25 3.265625 C 4.40625 3.265625 3.609375 3.160156 2.859375 2.953125 C 2.109375 2.753906 1.484375 2.457031 0.984375 2.0625 L 1.984375 0.265625 C 2.347656 0.554688 2.8125 0.789062 3.375 0.96875 C 3.9375 1.15625 4.5 1.25 5.0625 1.25 C 5.925781 1.25 6.566406 1.050781 6.984375 0.65625 C 7.398438 0.257812 7.609375 -0.332031 7.609375 -1.125 L 7.609375 -1.5 C 6.953125 -0.78125 6.035156 -0.421875 4.859375 -0.421875 C 4.066406 -0.421875 3.335938 -0.59375 2.671875 -0.9375 C 2.015625 -1.289062 1.488281 -1.785156 1.09375 -2.421875 C 0.707031 -3.054688 0.515625 -3.789062 0.515625 -4.625 C 0.515625 -5.445312 0.707031 -6.175781 1.09375 -6.8125 C 1.488281 -7.445312 2.015625 -7.941406 2.671875 -8.296875 C 3.335938 -8.648438 4.066406 -8.828125 4.859375 -8.828125 C 6.117188 -8.828125 7.078125 -8.410156 7.734375 -7.578125 L 7.734375 -8.6875 Z M 5.359375 -2.484375 C 6.023438 -2.484375 6.570312 -2.679688 7 -3.078125 C 7.425781 -3.472656 7.640625 -3.988281 7.640625 -4.625 C 7.640625 -5.257812 7.425781 -5.769531 7 -6.15625 C 6.570312 -6.550781 6.023438 -6.75 5.359375 -6.75 C 4.691406 -6.75 4.140625 -6.550781 3.703125 -6.15625 C 3.273438 -5.769531 3.0625 -5.257812 3.0625 -4.625 C 3.0625 -3.988281 3.273438 -3.472656 3.703125 -3.078125 C 4.140625 -2.679688 4.691406 -2.484375 5.359375 -2.484375 Z M 5.359375 -2.484375 "/></g></g></g><g fill="#000000" fill-opacity="1"><g transform="translate(73.066238, 19.936674)"><g/></g></g><g fill="#000000" fill-opacity="1"><g transform="translate(77.639298, 19.936674)"><g><path d="M 1.34375 -11.3125 L 3.953125 -11.3125 L 3.953125 -2.125 L 9.625 -2.125 L 9.625 0 L 1.34375 0 Z M 1.34375 -11.3125 "/></g></g></g><g fill="#000000" fill-opacity="1"><g transform="translate(87.399471, 19.936674)"><g><path d="M 9.921875 -8.6875 L 9.921875 0 L 7.53125 0 L 7.53125 -1.03125 C 7.195312 -0.65625 6.796875 -0.367188 6.328125 -0.171875 C 5.867188 0.0234375 5.367188 0.125 4.828125 0.125 C 3.691406 0.125 2.785156 -0.203125 2.109375 -0.859375 C 1.441406 -1.515625 1.109375 -2.488281 1.109375 -3.78125 L 1.109375 -8.6875 L 3.640625 -8.6875 L 3.640625 -4.15625 C 3.640625 -2.75 4.222656 -2.046875 5.390625 -2.046875 C 5.992188 -2.046875 6.476562 -2.242188 6.84375 -2.640625 C 7.21875 -3.035156 7.40625 -3.617188 7.40625 -4.390625 L 7.40625 -8.6875 Z M 9.921875 -8.6875 "/></g></g></g><g fill="#000000" fill-opacity="1"><g transform="translate(98.500857, 19.936674)"><g><path d="M 8.328125 -1.9375 L 8.328125 0 L 0.5625 0 L 0.5625 -1.515625 L 5 -6.75 L 0.671875 -6.75 L 0.671875 -8.6875 L 8.171875 -8.6875 L 8.171875 -7.171875 L 3.75 -1.9375 Z M 8.328125 -1.9375 "/></g></g></g><g fill="#000000" fill-opacity="1"><g transform="translate(107.275315, 19.936674)"><g><path d="M 9.671875 -4.3125 C 9.671875 -4.28125 9.65625 -4.054688 9.625 -3.640625 L 3.046875 -3.640625 C 3.171875 -3.097656 3.453125 -2.671875 3.890625 -2.359375 C 4.335938 -2.046875 4.890625 -1.890625 5.546875 -1.890625 C 5.992188 -1.890625 6.390625 -1.957031 6.734375 -2.09375 C 7.085938 -2.226562 7.414062 -2.441406 7.71875 -2.734375 L 9.0625 -1.28125 C 8.238281 -0.34375 7.046875 0.125 5.484375 0.125 C 4.492188 0.125 3.625 -0.0625 2.875 -0.4375 C 2.125 -0.820312 1.539062 -1.351562 1.125 -2.03125 C 0.71875 -2.707031 0.515625 -3.476562 0.515625 -4.34375 C 0.515625 -5.195312 0.71875 -5.960938 1.125 -6.640625 C 1.53125 -7.328125 2.082031 -7.863281 2.78125 -8.25 C 3.488281 -8.632812 4.28125 -8.828125 5.15625 -8.828125 C 6.007812 -8.828125 6.78125 -8.640625 7.46875 -8.265625 C 8.15625 -7.898438 8.691406 -7.375 9.078125 -6.6875 C 9.472656 -6.007812 9.671875 -5.21875 9.671875 -4.3125 Z M 5.171875 -6.921875 C 4.597656 -6.921875 4.117188 -6.757812 3.734375 -6.4375 C 3.347656 -6.113281 3.109375 -5.671875 3.015625 -5.109375 L 7.296875 -5.109375 C 7.210938 -5.648438 6.976562 -6.085938 6.59375 -6.421875 C 6.207031 -6.753906 5.734375 -6.921875 5.171875 -6.921875 Z M 5.171875 -6.921875 "/></g></g></g><g fill="#000000" fill-opacity="1"><g transform="translate(117.471786, 19.936674)"><g><path d="M 6.453125 -8.828125 C 7.523438 -8.828125 8.390625 -8.5 9.046875 -7.84375 C 9.710938 -7.195312 10.046875 -6.238281 10.046875 -4.96875 L 10.046875 0 L 7.53125 0 L 7.53125 -4.59375 C 7.53125 -5.28125 7.378906 -5.789062 7.078125 -6.125 C 6.773438 -6.46875 6.335938 -6.640625 5.765625 -6.640625 C 5.128906 -6.640625 4.625 -6.441406 4.25 -6.046875 C 3.875 -5.648438 3.6875 -5.066406 3.6875 -4.296875 L 3.6875 0 L 1.15625 0 L 1.15625 -8.6875 L 3.578125 -8.6875 L 3.578125 -7.671875 C 3.910156 -8.035156 4.320312 -8.316406 4.8125 -8.515625 C 5.3125 -8.722656 5.859375 -8.828125 6.453125 -8.828125 Z M 6.453125 -8.828125 "/></g></g></g><g fill="#000000" fill-opacity="1"><g transform="translate(128.637814, 19.936674)"><g><path d="M 1.15625 -8.6875 L 3.6875 -8.6875 L 3.6875 0 L 1.15625 0 Z M 2.421875 -9.90625 C 1.953125 -9.90625 1.570312 -10.039062 1.28125 -10.3125 C 1 -10.582031 0.859375 -10.914062 0.859375 -11.3125 C 0.859375 -11.707031 1 -12.039062 1.28125 -12.3125 C 1.570312 -12.582031 1.953125 -12.71875 2.421875 -12.71875 C 2.878906 -12.71875 3.253906 -12.585938 3.546875 -12.328125 C 3.835938 -12.066406 3.984375 -11.742188 3.984375 -11.359375 C 3.984375 -10.941406 3.835938 -10.59375 3.546875 -10.3125 C 3.253906 -10.039062 2.878906 -9.90625 2.421875 -9.90625 Z M 2.421875 -9.90625 "/></g></g></g><g fill="#000000" fill-opacity="1"><g transform="translate(133.501739, 19.936674)"><g><path d="M 6.453125 -8.828125 C 7.523438 -8.828125 8.390625 -8.5 9.046875 -7.84375 C 9.710938 -7.195312 10.046875 -6.238281 10.046875 -4.96875 L 10.046875 0 L 7.53125 0 L 7.53125 -4.59375 C 7.53125 -5.28125 7.378906 -5.789062 7.078125 -6.125 C 6.773438 -6.46875 6.335938 -6.640625 5.765625 -6.640625 C 5.128906 -6.640625 4.625 -6.441406 4.25 -6.046875 C 3.875 -5.648438 3.6875 -5.066406 3.6875 -4.296875 L 3.6875 0 L 1.15625 0 L 1.15625 -8.6875 L 3.578125 -8.6875 L 3.578125 -7.671875 C 3.910156 -8.035156 4.320312 -8.316406 4.8125 -8.515625 C 5.3125 -8.722656 5.859375 -8.828125 6.453125 -8.828125 Z M 6.453125 -8.828125 "/></g></g></g></svg>